<svg xmlns="http://www.w3.org/2000/svg" viewBox="0 0 976 461" width="100%" height="100%"><style>.edge text,.node text{font-family:Inter,sans-serif;font-size:11px}.edge text{font-size:10px}</style><g id="graph0" style="font-family:Inter,sans-serif" transform="translate(36 425)"><text x="452" y="-370.6" font-family="Arial" font-size="18" text-anchor="middle">MAD Internal Cognitive Loop</text><g id="clust1" class="cluster"><path fill="#f5f5f5" stroke="#000" d="M8-8v-262h693V-8z"/><text x="354.5" y="-251.6" font-family="Arial" font-size="18" text-anchor="middle">Inside a Single MAD</text></g><g id="clust2" class="cluster"><path fill="#e3f2fd" stroke="#000" d="M16-16v-218h298v218z"/><text x="165" y="-215.6" font-family="Arial" font-size="18" text-anchor="middle">ActionEngine</text></g><g id="clust3" class="cluster"><path fill="#e8f5e9" stroke="#000" d="M412-16v-80h152v80z"/><text x="488" y="-77.6" font-family="Arial" font-size="18" text-anchor="middle">ThoughtEngine</text></g><g id="node1" class="node"><path fill="#bbdefb" stroke="#2e86ab" stroke-width="1.5" d="M294-198h-62c-6 0-12 6-12 12v12c0 6 6 12 12 12h62c6 0 12-6 12-12v-12c0-6-6-12-12-12"/><text x="263" y="-176.9" font-family="Arial" font-size="12" text-anchor="middle">MCP Server</text></g><g id="node2" class="node"><path fill="#fff" stroke="#2e86ab" stroke-width="1.5" d="M195-60h-94c-6 0-12 6-12 12v12c0 6 6 12 12 12h94c6 0 12-6 12-12v-12c0-6-6-12-12-12"/><text x="148" y="-38.9" font-family="Arial" font-size="12" text-anchor="middle">Tools / Resources</text></g><g id="edge4" class="edge"><path fill="none" stroke="#555" stroke-width="2" d="M248.67-161.92V-48h-31.53"/><path fill="#555" stroke="#555" stroke-width="2" d="m217.14-44.5-10-3.5 10-3.5z"/><text x="122" y="-112.5" font-family="Arial" font-size="10" text-anchor="middle">4. Executes plan</text></g><g id="node3" class="node"><path fill="#c8e6c9" stroke="#2e86ab" stroke-width="1.5" d="M514.5-60h-53c-6 0-12 6-12 12v12c0 6 6 12 12 12h53c6 0 12-6 12-12v-12c0-6-6-12-12-12"/><text x="488" y="-38.9" font-family="Arial" font-size="12" text-anchor="middle">Imperator</text></g><g id="edge2" class="edge"><path fill="none" stroke="#555" stroke-width="2" d="M306.07-180h194.76v109.96"/><path fill="#555" stroke="#555" stroke-width="2" d="m504.33-70.04-3.5 10-3.5-10z"/><text x="427.5" y="-118" font-family="Arial" font-size="10" text-anchor="middle">2. Forwards for analysis</text><text x="427.5" y="-107" font-family="Arial" font-size="10" text-anchor="middle">&apos;What should I do?&apos;</text></g><g id="node5" class="node"><path fill="#ffebcc" stroke="#2e86ab" stroke-width="1.5" d="M815-54H709v24h106l12-12z"/><text x="768" y="-38.9" font-family="Arial" font-size="12" text-anchor="middle">Rogers Bus (Out)</text></g><g id="edge6" class="edge"><path fill="none" stroke="#555" stroke-width="2" d="M306.06-189H768v118.97"/><path fill="#555" stroke="#555" stroke-width="2" d="m771.5-70.03-3.5 10-3.5-10z"/><text x="836" y="-112.5" font-family="Arial" font-size="10" text-anchor="middle">6. Sends response message</text></g><g id="edge5" class="edge"><path fill="none" stroke="#555" stroke-width="2" d="M207.37-36h69.96v-115.76"/><path fill="#555" stroke="#555" stroke-width="2" d="m273.83-151.76 3.5-10 3.5 10z"/><text x="265.5" y="-112.5" font-family="Arial" font-size="10" text-anchor="middle">5. Returns result</text></g><g id="edge3" class="edge"><path fill="none" stroke="#555" stroke-width="2" d="M475.17-60.21V-171H316.19"/><path fill="#555" stroke="#555" stroke-width="2" d="m316.19-167.5-10-3.5 10-3.5z"/><text x="621" y="-118" font-family="Arial" font-size="10" text-anchor="middle">3. Returns plan</text><text x="621" y="-107" font-family="Arial" font-size="10" text-anchor="middle">&apos;Execute tool X with param Y&apos;</text></g><g id="node4" class="node"><path fill="#ffebcc" stroke="#2e86ab" stroke-width="1.5" d="M304.5-355h-95v24h95l12-12z"/><text x="263" y="-339.9" font-family="Arial" font-size="12" text-anchor="middle">Rogers Bus (In)</text></g><g id="edge1" class="edge"><path fill="none" stroke="#555" stroke-width="2" d="M263-324.93v116.78"/><path fill="#555" stroke="#555" stroke-width="2" d="m266.5-208.15-3.5 10-3.5-10z"/><text x="315" y="-281" font-family="Arial" font-size="10" text-anchor="middle">1. Receives message</text></g></g></svg>