<svg xmlns="http://www.w3.org/2000/svg" viewBox="0 0 781.06 636.05" width="100%" height="100%"><style>.edge text,.node text{font-family:Inter,sans-serif;font-size:11px}.edge text{font-size:10px}</style><g id="graph0" style="font-family:Inter,sans-serif" transform="translate(36 600.05)"><text x="354.53" y="-545.65" font-family="Arial" font-size="18" text-anchor="middle">MAD Ecosystem - V1 Communication Patterns</text><g id="node1" class="node"><path fill="#ffd180" stroke="#2e86ab" stroke-width="1.5" d="M372.02-262.09v-11.87c0-5.94-5.21-14.71-10.43-17.55l-25.41-13.84c-5.22-2.84-16.37-5.67-22.31-5.67h-41.69c-5.94 0-17.09 2.83-22.31 5.67l-25.42 13.84c-5.21 2.84-10.43 11.61-10.43 17.55v11.87c0 5.94 5.22 14.72 10.43 17.55l25.42 13.84c5.22 2.84 16.37 5.68 22.31 5.68h41.69c5.94 0 17.09-2.84 22.31-5.68l25.41-13.84c5.22-2.83 10.43-11.61 10.43-17.55"/><text x="293.02" y="-271.42" font-family="Arial" font-size="12" text-anchor="middle">Rogers</text><text x="293.02" y="-258.42" font-family="Arial" font-size="12" text-anchor="middle">Messaging Bus</text></g><g id="node2" class="node"><path fill="#c5cae9" stroke="#2e86ab" stroke-width="1.5" d="M126.38-446.41h-85c-6 0-12 6-12 12v34c0 6 6 12 12 12h85c6 0 12-6 12-12v-34c0-6-6-12-12-12"/><text x="83.88" y="-420.61" font-family="Arial" font-size="11" text-anchor="middle">User-Facing MAD</text><text x="83.88" y="-408.61" font-family="Arial" font-size="11" text-anchor="middle">(e.g., &apos;Dewey&apos;)</text></g><g id="edge2" class="edge"><path fill="none" stroke="#555" stroke-width="1.5" d="M220.53-289.71c-42.87-24.91-93.42-63.24-119.88-92.3"/><path fill="#555" stroke="#555" stroke-width="1.5" d="m98.53-380.19-3.15-7.87 7.37 4.2z"/></g><g id="edge6" class="edge"><path fill="none" stroke="#555" stroke-width="1.5" d="M268.84-311.19c-30.31-30.4-81.81-68.06-123.05-90.5"/><path fill="#555" stroke="#555" stroke-width="1.5" d="m144.24-399.35-5.76-6.21 8.38 1.27z"/></g><g id="edge14" class="edge"><path fill="none" stroke="#555" stroke-width="1.5" d="M255.22-308.88c-30.58-25.15-74.11-56.55-109.69-79.28"/><path fill="#555" stroke="#555" stroke-width="1.5" d="m143.8-385.94-5.27-6.64 8.26 1.9z"/><text x="144.88" y="-351.52" font-family="Arial" font-size="10" text-anchor="middle">delivers final response</text></g><g id="node3" class="node"><path fill="#b2dfdb" stroke="#2e86ab" stroke-width="1.5" d="M558.17-446.41h-112c-6 0-12 6-12 12v34c0 6 6 12 12 12h112c6 0 12-6 12-12v-34c0-6-6-12-12-12"/><text x="502.17" y="-420.61" font-family="Arial" font-size="11" text-anchor="middle">Helper MCP</text><text x="502.17" y="-408.61" font-family="Arial" font-size="11" text-anchor="middle">(e.g., &apos;CodeExecutor&apos;)</text></g><g id="edge4" class="edge"><path fill="none" stroke="#555" stroke-width="1.5" d="M335.86-305.64c31.4-24 74.32-54.78 108.71-78"/><path fill="#555" stroke="#555" stroke-width="1.5" d="m443.13-386.05 8.2-2.13-5.08 6.78z"/></g><g id="node4" class="node"><path fill="#b2dfdb" stroke="#2e86ab" stroke-width="1.5" d="M574.05-147.63h-84c-6 0-12 6-12 12v34c0 6 6 12 12 12h84c6 0 12-6 12-12v-34c0-6-6-12-12-12"/><text x="532.05" y="-121.83" font-family="Arial" font-size="11" text-anchor="middle">Fiedler</text><text x="532.05" y="-109.83" font-family="Arial" font-size="11" text-anchor="middle">(LLM Gateway)</text></g><g id="edge8" class="edge"><path fill="none" stroke="#555" stroke-width="1.5" d="M350.92-238.65c42.26 24.77 98.63 60.12 137.21 86.1"/><path fill="#555" stroke="#555" stroke-width="1.5" d="m490.07-154.62 5.05 6.8-8.19-2.17z"/></g><g id="node6" class="node"><path fill="#fff9c4" stroke="#2e86ab" stroke-width="1.5" d="M279.27-58h-92c-6 0-12 6-12 12v34c0 6 6 12 12 12h92c6 0 12-6 12-12v-34c0-6-6-12-12-12"/><text x="233.27" y="-32.2" font-family="Arial" font-size="11" text-anchor="middle">Ephemeral MAD</text><text x="233.27" y="-20.2" font-family="Arial" font-size="11" text-anchor="middle">(e.g., &apos;SeniorDev&apos;)</text></g><g id="edge12" class="edge"><path fill="none" stroke="#555" stroke-width="1.5" d="M287.67-224.84c-9.26 45.37-26.96 115.94-39.89 158.83"/><path fill="#555" stroke="#555" stroke-width="1.5" d="m250.45-65.16-5.02 6.82-.33-8.46z"/></g><g id="node7" class="node"><ellipse cx="293.02" cy="-507.05" fill="#fff" stroke="#2e86ab" stroke-width="1.5" rx="58.12" ry="29"/><text x="293.02" y="-504.25" font-family="Arial" font-size="11" text-anchor="middle">Human Operator</text></g><g id="edge15" class="edge"><path fill="none" stroke="#555" stroke-width="1.5" d="M287.7-311.03c-1.98-45.24-1.9-115.7.26-158.68"/><path fill="#555" stroke="#555" stroke-width="1.5" d="m285.18-470.09 3.24-7.83 2.35 8.14z"/></g><g id="edge3" class="edge"><path fill="none" stroke="#555" stroke-width="1.5" d="M124.7-388.26c32.34 23.11 77.84 55.61 113.38 80.99"/><path fill="#555" stroke="#555" stroke-width="1.5" d="m239.71-309.54 4.89 6.93-8.14-2.38z"/><text x="240.89" y="-339.76" font-family="Arial" font-size="10" text-anchor="middle">requests code execution</text></g><g id="edge7" class="edge"><path fill="none" stroke="#555" stroke-width="1.5" d="M107.74-388.4c28.71 25.3 77.75 61.39 118.22 87.64"/><path fill="#555" stroke="#555" stroke-width="1.5" d="m227.68-302.99 5.21 6.68-8.24-1.97z"/><text x="124.35" y="-336.58" font-family="Arial" font-size="10" text-anchor="middle">requests LLM call</text></g><g id="edge5" class="edge"><path fill="none" stroke="#555" stroke-width="1.5" d="M470.18-388.18c-30.75 24.06-77.98 58.17-115.95 83.94"/><path fill="#555" stroke="#555" stroke-width="1.5" d="m355.45-301.68-8.2 2.15 5.06-6.79z"/><text x="379.2" y="-349.21" font-family="Arial" font-size="10" text-anchor="middle">returns result</text></g><g id="edge10" class="edge"><path fill="none" stroke="#555" stroke-width="1.5" d="M477.77-145.88c-39.22-22.88-91.93-55.75-131.02-81.67"/><path fill="#555" stroke="#555" stroke-width="1.5" d="m344.72-225.54-5.11-6.77 8.21 2.11z"/><text x="365.76" y="-189.72" font-family="Arial" font-size="10" text-anchor="middle">returns completion</text></g><g id="node8" class="node"><path fill="#cfd8dc" stroke="#2e86ab" stroke-width="1.5" d="M709.06-142.36c0-2.91-25.77-5.27-57.5-5.27s-57.5 2.36-57.5 5.27v47.45c0 2.91 25.77 5.28 57.5 5.28s57.5-2.37 57.5-5.28v-47.45"/><path fill="none" stroke="#2e86ab" stroke-width="1.5" d="M709.06-142.36c0 2.91-25.77 5.27-57.5 5.27s-57.5-2.36-57.5-5.27"/><text x="651.56" y="-115.83" font-family="Arial" font-size="11" text-anchor="middle">External LLM APIs</text></g><g id="edge9" class="edge"><path fill="none" stroke="#555" stroke-dasharray="5,2" stroke-width="1.5" d="M586.21-118.63h.49"/><path fill="#555" stroke="#555" stroke-width="1.5" d="m586.01-121.43 8 2.8-8 2.8z"/><text x="626.45" y="-121.63" font-family="Arial" font-size="10" text-anchor="middle">external API call</text></g><g id="node5" class="node"><path fill="#f8bbd0" stroke="#2e86ab" stroke-width="1.5" d="M96-147.63H12c-6 0-12 6-12 12v34c0 6 6 12 12 12h84c6 0 12-6 12-12v-34c0-6-6-12-12-12"/><text x="54" y="-121.83" font-family="Arial" font-size="11" text-anchor="middle">Hopper</text><text x="54" y="-109.83" font-family="Arial" font-size="11" text-anchor="middle">(eMAD Factory)</text></g><g id="edge11" class="edge"><path fill="none" stroke="#555" stroke-width="1.5" d="M100.65-147.79c38.02-23.76 91.94-57.46 133.02-83.14"/><path fill="#555" stroke="#555" stroke-width="1.5" d="m232.4-233.44 8.27-1.86-5.3 6.61z"/><text x="132.16" y="-192.36" font-family="Arial" font-size="10" text-anchor="middle">spawns eMAD</text></g><g id="edge13" class="edge"><path fill="none" stroke="#555" stroke-width="1.5" d="M235.94-58.46c7.32-39.49 24.6-110.18 38.43-158.45"/><path fill="#555" stroke="#555" stroke-width="1.5" d="m271.73-217.85 4.91-6.9.46 8.46z"/><text x="220.65" y="-140.69" font-family="Arial" font-size="10" text-anchor="middle">performs task</text></g><g id="edge1" class="edge"><path fill="none" stroke="#555" stroke-width="1.5" d="M297.64-477.74c2.44 39.36 2.79 109.93 1.05 158.24"/><path fill="#555" stroke="#555" stroke-width="1.5" d="m301.48-319.23-3.11 7.89-2.49-8.11z"/><text x="257.66" y="-401.62" font-family="Arial" font-size="10" text-anchor="middle">sends command</text></g></g></svg>