<svg xmlns="http://www.w3.org/2000/svg" viewBox="0 0 1639 628" width="100%" height="100%"><style>.edge text,.node text{font-family:Inter,sans-serif;font-size:11px}.edge text{font-size:10px}</style><g id="graph0" style="font-family:Inter,sans-serif" transform="translate(36 592)"><text x="783.5" y="-537.6" font-family="Arial" font-size="18" text-anchor="middle">MAD V1 - Core Architecture</text><g id="clust1" class="cluster"><path fill="#f5f5f5" stroke="#000" d="M300-78h1247c6 0 12-6 12-12v-382c0-6-6-12-12-12H300c-6 0-12 6-12 12v382c0 6 6 12 12 12"/><text x="923.5" y="-465.6" font-family="Arial" font-size="18" text-anchor="middle">MAD (Multipurpose Agentic Duo)</text></g><g id="clust2" class="cluster"><path fill="#e3f2fd" stroke="#e3f2fd" d="M308-86h460.5c6 0 12-6 12-12v-244c0-6-6-12-12-12H308c-6 0-12 6-12 12v244c0 6 6 12 12 12"/><text x="538.25" y="-335.6" font-family="Arial" font-size="18" text-anchor="middle">ActionEngine (Doing)</text></g><g id="clust4" class="cluster"><path fill="#e8f5e9" stroke="#e8f5e9" d="M646-368h893c6 0 12-6 12-12v-56c0-6-6-12-12-12H646c-6 0-12 6-12 12v56c0 6 6 12 12 12"/><text x="1092.5" y="-429.6" font-family="Arial" font-size="18" text-anchor="middle">ThoughtEngine (Thinking)</text></g><g id="node1" class="node"><path fill="#bbdefb" stroke="#333" stroke-width="1.5" d="M418-244H304v4h-4v4h4v20h-4v4h4v4h114z"/><path fill="none" stroke="#333" stroke-width="1.5" d="M304-240h4v4h-4M304-216h4v4h-4"/><text x="361" y="-229.4" font-family="Arial" font-size="12" text-anchor="middle">MCP Server</text><text x="361" y="-216.4" font-family="Arial" font-size="12" text-anchor="middle">(Internal Bridge)</text></g><g id="node2" class="node"><path fill="#fff" stroke="#333" stroke-width="1.5" d="M746-126.73c0-1.8-17.93-3.27-40-3.27s-40 1.47-40 3.27v29.46c0 1.8 17.93 3.27 40 3.27s40-1.47 40-3.27v-29.46"/><path fill="none" stroke="#333" stroke-width="1.5" d="M746-126.73c0 1.81-17.93 3.28-40 3.28s-40-1.47-40-3.28"/><text x="706" y="-108.9" font-family="Arial" font-size="12" text-anchor="middle">Databases</text></g><g id="edge1" class="edge"><path fill="none" stroke="#555" stroke-dasharray="5,2" stroke-width="1.5" d="M361-207.94V-112h304.75"/><text x="525" y="-155" font-family="Arial" font-size="10" text-anchor="middle">manages</text></g><g id="node3" class="node"><path fill="#fff" stroke="#333" stroke-width="1.5" d="m748-224-3-4h-21l-3 4h-57v36h84z"/><text x="706" y="-202.9" font-family="Arial" font-size="12" text-anchor="middle">File System</text></g><g id="edge2" class="edge"><path fill="none" stroke="#555" stroke-dasharray="5,2" stroke-width="1.5" d="M418.36-218.67h245.39"/><text x="525" y="-229" font-family="Arial" font-size="10" text-anchor="middle">manages</text></g><g id="node4" class="node"><path fill="#fff" stroke="#333" stroke-width="1.5" d="M760.5-312h-121v24h121l12-12z"/><text x="706" y="-303.4" font-family="Arial" font-size="12" text-anchor="middle">Execution</text><text x="706" y="-290.4" font-family="Arial" font-size="12" text-anchor="middle">Components / Tools</text></g><g id="edge3" class="edge"><path fill="none" stroke="#555" stroke-dasharray="5,2" stroke-width="1.5" d="M418.15-234H652v-47.97"/><text x="525" y="-303" font-family="Arial" font-size="10" text-anchor="middle">manages</text></g><g id="node5" class="node"><path fill="#c8e6c9" stroke="#333" stroke-width="1.5" d="M758-412H654c-6 0-12 6-12 12v12c0 6 6 12 12 12h104c6 0 12-6 12-12v-12c0-6-6-12-12-12"/><text x="706" y="-390.9" font-family="Arial" font-size="12" text-anchor="middle">V1: Imperator LLM</text></g><g id="edge5" class="edge"><path fill="none" stroke="#424242" stroke-width="2" d="M361-254.3V-394h270.92"/><path fill="#424242" stroke="#424242" stroke-width="2" d="m364.5-254.3-3.5 10-3.5-10zM631.92-397.5l10 3.5-10 3.5z"/><text x="525" y="-398" fill="#424242" font-family="Arial" font-size="10" text-anchor="middle">2. Internal Messaging</text><text x="525" y="-387" fill="#424242" font-family="Arial" font-size="10" text-anchor="middle">(Request for thought)</text></g><g id="node8" class="node"><path fill="#ffebcc" stroke="#333" stroke-width="1.5" d="M768-30H632v24h136l12-12z"/><text x="706" y="-21.4" font-family="Arial" font-size="12" text-anchor="middle">External Conversation</text><text x="706" y="-8.4" font-family="Arial" font-size="12" text-anchor="middle">(to Rogers)</text></g><g id="edge7" class="edge"><path fill="none" stroke="#555" stroke-width="1.5" d="M418.31-213.33H636v167.3"/><path fill="#555" stroke="#555" stroke-width="1.5" d="m639.5-46.03-3.5 10-3.5-10z"/><text x="525" y="-21" font-family="Arial" font-size="10" text-anchor="middle">3. Egress / Action</text></g><g id="node6" class="node"><path fill="none" stroke="gray" stroke-dasharray="5,2" stroke-width="1.5" d="M1543-412h-143v36h143z"/><text x="1471.5" y="-397.4" font-family="Arial" font-size="12" text-anchor="middle">Other Cognitive</text><text x="1471.5" y="-384.4" font-family="Arial" font-size="12" text-anchor="middle">Components (Future)</text></g><g id="node7" class="node"><path fill="#ffebcc" stroke="#333" stroke-width="1.5" d="M136-238H0v24h136l12-12z"/><text x="74" y="-229.4" font-family="Arial" font-size="12" text-anchor="middle">External Conversation</text><text x="74" y="-216.4" font-family="Arial" font-size="12" text-anchor="middle">(from Rogers)</text></g><g id="edge4" class="edge"><path fill="none" stroke="#555" stroke-width="1.5" d="M148.28-226h145.51"/><path fill="#555" stroke="#555" stroke-width="1.5" d="m293.79-229.5 10 3.5-10 3.5z"/><text x="226" y="-229" font-family="Arial" font-size="10" text-anchor="middle">1. Ingress</text></g><g id="node9" class="node"><path fill="#fff" stroke="transparent" stroke-width="1.5" d="M1334-528H846c-6 0-12 6-12 12v12c0 6 6 12 12 12h488c6 0 12-6 12-12v-12c0-6-6-12-12-12"/><text x="1090" y="-507.5" font-family="Arial" font-size="10" text-anchor="middle">Note: The MCP Server is part of the ActionEngine and serves as the sole bridge to the ThoughtEngine.</text></g></g></svg>