<svg xmlns="http://www.w3.org/2000/svg" viewBox="0 0 456 1448" width="100%" height="100%"><style>.node text{font-family:Inter,sans-serif;font-size:11px}</style><g id="graph0" style="font-family:Inter,sans-serif" transform="translate(36 1412)"><text x="192" y="-1357.6" font-family="Arial" font-size="18" text-anchor="middle">ThoughtEngine Evolution (V1-V4+)</text><g id="clust2" class="cluster"><path fill="#e3f2fd" stroke="#000" d="M105-1136h70c6 0 12-6 12-12v-56c0-6-6-12-12-12h-70c-6 0-12 6-12 12v56c0 6 6 12 12 12"/><text x="140" y="-1197.6" font-family="Arial" font-size="18" text-anchor="middle">V1</text></g><g id="clust3" class="cluster"><path fill="#e8f5e9" stroke="#000" d="M53-879h168c6 0 12-6 12-12v-189c0-6-6-12-12-12H53c-6 0-12 6-12 12v189c0 6 6 12 12 12"/><text x="137" y="-1073.6" font-family="Arial" font-size="18" text-anchor="middle">V2</text></g><g id="clust4" class="cluster"><path fill="#fffde7" stroke="#000" d="M46-509h212c6 0 12-6 12-12v-302c0-6-6-12-12-12H46c-6 0-12 6-12 12v302c0 6 6 12 12 12"/><text x="152" y="-816.6" font-family="Arial" font-size="18" text-anchor="middle">V3</text></g><g id="clust5" class="cluster"><path fill="#ffe0b2" stroke="#000" d="M137-16h156c6 0 12-6 12-12v-425c0-6-6-12-12-12H137c-6 0-12 6-12 12v425c0 6 6 12 12 12"/><text x="215" y="-446.6" font-family="Arial" font-size="18" text-anchor="middle">V4+</text></g><g id="node1" class="node"><path fill="#e8f4f8" stroke="#2e86ab" stroke-width="1.5" d="M318.5-1298h-165v24h165l12-12z"/><text x="242" y="-1289.4" font-family="Arial" font-size="12" text-anchor="middle">Raw Input from</text><text x="242" y="-1276.4" font-family="Arial" font-size="12" text-anchor="middle">ActionEngine (MCP Server)</text></g><g id="node2" class="node"><path fill="#e8f4f8" stroke="#2e86ab" stroke-width="1.5" d="M166.5-1180h-53c-6 0-12 6-12 12v12c0 6 6 12 12 12h53c6 0 12-6 12-12v-12c0-6-6-12-12-12"/><text x="140" y="-1158.9" font-family="Arial" font-size="12" text-anchor="middle">Imperator</text></g><g id="edge7" class="edge"><path fill="none" stroke="#555" stroke-width="1.5" d="M227.6-1267.78c-17.39 20.8-46.78 55.95-66.67 79.75"/><path fill="#555" stroke="#555" stroke-width="1.5" d="m163.42-1185.56-9.1 5.43 3.73-9.92z"/></g><g id="node3" class="node"><path fill="#e8f4f8" stroke="#2e86ab" stroke-width="1.5" d="M213-1056H61c-6 0-12 6-12 12v12c0 6 6 12 12 12h152c6 0 12-6 12-12v-12c0-6-6-12-12-12"/><text x="137" y="-1041.4" font-family="Arial" font-size="12" text-anchor="middle">DTR</text><text x="137" y="-1028.4" font-family="Arial" font-size="12" text-anchor="middle">(Dialogue Turn Recognizer)</text></g><g id="edge8" class="edge"><path fill="none" stroke="#555" stroke-width="1.5" d="M234.28-1267.76c-18.21 42.99-63.9 150.93-85.55 202.06"/><path fill="#555" stroke="#555" stroke-width="1.5" d="m151.85-1064.11-7.12 7.85.68-10.58z"/></g><g id="node5" class="node"><path fill="#e8f4f8" stroke="#2e86ab" stroke-width="1.5" d="M250.5-799h-197c-6 0-12 6-12 12v12c0 6 6 12 12 12h197c6 0 12-6 12-12v-12c0-6-6-12-12-12"/><text x="152" y="-784.4" font-family="Arial" font-size="12" text-anchor="middle">LPPM</text><text x="152" y="-771.4" font-family="Arial" font-size="12" text-anchor="middle">(Learned Prompt Pattern Matcher)</text></g><g id="edge9" class="edge"><path fill="none" stroke="#555" stroke-width="1.5" d="M238.74-1267.73c-13.52 75.86-65.28 366.33-81.71 458.49"/><path fill="#555" stroke="#555" stroke-width="1.5" d="m160.45-808.48-5.2 9.23-1.69-10.46z"/></g><g id="node8" class="node"><path fill="#e8f4f8" stroke="#2e86ab" stroke-width="1.5" d="M284.5-429h-139c-6 0-12 6-12 12v12c0 6 6 12 12 12h139c6 0 12-6 12-12v-12c0-6-6-12-12-12"/><text x="215" y="-414.4" font-family="Arial" font-size="12" text-anchor="middle">CET</text><text x="215" y="-401.4" font-family="Arial" font-size="12" text-anchor="middle">(Cognitive Event Tagger)</text></g><g id="edge10" class="edge"><path fill="none" stroke="#555" stroke-width="1.5" d="M241.44-1267.72c-3.43 110.87-21.39 693.09-25.57 828.54"/><path fill="#555" stroke="#555" stroke-width="1.5" d="m219.37-439.06-3.81 9.88-3.19-10.1z"/></g><g id="node4" class="node"><path fill="#e8f4f8" stroke="#2e86ab" stroke-width="1.5" d="M172.5-923h-53c-6 0-12 6-12 12v12c0 6 6 12 12 12h53c6 0 12-6 12-12v-12c0-6-6-12-12-12"/><text x="146" y="-901.9" font-family="Arial" font-size="12" text-anchor="middle">Imperator</text></g><g id="edge1" class="edge"><path fill="none" stroke="#555" stroke-width="1.5" d="M138.18-1019.87c1.51 22.06 4.17 60.68 5.96 86.75"/><path fill="#555" stroke="#555" stroke-width="1.5" d="m147.63-933.35-2.81 10.22-4.17-9.74z"/><text x="117.5" y="-969" style="font-family:Inter,sans-serif;font-size:10px" text-anchor="middle">filtered input</text></g><g id="node6" class="node"><path fill="#e8f4f8" stroke="#2e86ab" stroke-width="1.5" d="M200-676h-30c-6 0-12 6-12 12v12c0 6 6 12 12 12h30c6 0 12-6 12-12v-12c0-6-6-12-12-12"/><text x="185" y="-654.9" font-family="Arial" font-size="12" text-anchor="middle">DTR</text></g><g id="edge2" class="edge"><path fill="none" stroke="#555" stroke-width="1.5" d="M156.66-762.92c5.45 19.97 14.53 53.3 20.95 76.81"/><path fill="#555" stroke="#555" stroke-width="1.5" d="m181-686.95-.74 10.57-6.01-8.73z"/></g><g id="node7" class="node"><path fill="#e8f4f8" stroke="#2e86ab" stroke-width="1.5" d="M231.5-553h-53c-6 0-12 6-12 12v12c0 6 6 12 12 12h53c6 0 12-6 12-12v-12c0-6-6-12-12-12"/><text x="205" y="-531.9" font-family="Arial" font-size="12" text-anchor="middle">Imperator</text></g><g id="edge3" class="edge"><path fill="none" stroke="#555" stroke-width="1.5" d="M187.82-639.92c3.29 19.88 8.76 53 12.65 76.5"/><path fill="#555" stroke="#555" stroke-width="1.5" d="m203.95-563.82-1.82 10.44-5.09-9.3z"/></g><g id="node9" class="node"><path fill="#e8f4f8" stroke="#2e86ab" stroke-width="1.5" d="M230-306h-30c-6 0-12 6-12 12v12c0 6 6 12 12 12h30c6 0 12-6 12-12v-12c0-6-6-12-12-12"/><text x="215" y="-284.9" font-family="Arial" font-size="12" text-anchor="middle">LPPM</text></g><g id="edge4" class="edge"><path fill="none" stroke="#555" stroke-width="1.5" d="M215-392.92v76.5"/><path fill="#555" stroke="#555" stroke-width="1.5" d="m218.5-316.38-3.5 10-3.5-10z"/></g><g id="node10" class="node"><path fill="#e8f4f8" stroke="#2e86ab" stroke-width="1.5" d="M230-183h-30c-6 0-12 6-12 12v12c0 6 6 12 12 12h30c6 0 12-6 12-12v-12c0-6-6-12-12-12"/><text x="215" y="-161.9" font-family="Arial" font-size="12" text-anchor="middle">DTR</text></g><g id="edge5" class="edge"><path fill="none" stroke="#555" stroke-width="1.5" d="M215-269.92v76.5"/><path fill="#555" stroke="#555" stroke-width="1.5" d="m218.5-193.38-3.5 10-3.5-10z"/></g><g id="node11" class="node"><path fill="#e8f4f8" stroke="#2e86ab" stroke-width="1.5" d="M241.5-60h-53c-6 0-12 6-12 12v12c0 6 6 12 12 12h53c6 0 12-6 12-12v-12c0-6-6-12-12-12"/><text x="215" y="-38.9" font-family="Arial" font-size="12" text-anchor="middle">Imperator</text></g><g id="edge6" class="edge"><path fill="none" stroke="#555" stroke-width="1.5" d="M215-146.92v76.5"/><path fill="#555" stroke="#555" stroke-width="1.5" d="m218.5-70.38-3.5 10-3.5-10z"/></g></g></svg>